<svg id="Layer_1" data-name="Layer 1" xmlns="http://www.w3.org/2000/svg" viewBox="0 0 170.08 170.08"><defs><style>.cls-1{fill:#066da4;}</style></defs><title>docker</title><path class="cls-1" d="M119.67,75.05c5.86-.85,5.75-.82,4.28-5.78-2.12-7.13-.76-13.75,3.53-20,1.2-1.73,2.08-1.82,3.8-.66,4.56,3.09,8.4,6.72,10,11.93.64,2.14,1.56,2.77,4,2.59,4.89-.38,9.76-.2,14.21,2.31,2.15,1.21,2.79,2.18,1.51,4.59-3.87,7.27-10.16,10.68-18.53,10.94-2.32.07-3.71.49-4.78,2.66-14.19,28.71-39.35,41.12-71.85,42.45A69.3,69.3,0,0,1,42,123.42a41.64,41.64,0,0,1-29.52-39c-.07-2.78.1-5.57.15-8.36,1.42-1.18,3.14-.57,4.69-.57q48.75-.06,97.5,0C116.46,75.43,118.12,75.8,119.67,75.05Z"/></svg>
