<svg id="Layer_1" data-name="Layer 1" xmlns="http://www.w3.org/2000/svg" viewBox="0 0 300 300"><path d="M134.43,162.14a57,57,0,0,1,32-25.74c1.05,3.56,1.83,6.79,3,9.89,4.41,12.08,12.14,21.86,21.83,30.05,16.83,14.21,31.12,30.73,44.62,48,11.34,14.51,20.92,30.18,30.45,45.88a71.22,71.22,0,0,1,3.39,7c3.31,7.2-.55,12-4.79,15.23s-8.75,3.93-13.29,1a69.9,69.9,0,0,1-9.38-7.23c-20.66-19.14-40-39.53-56.1-62.72-6.66-9.6-12.61-19.7-18.58-29.75-7.31-12.32-16.34-22.82-29.35-29.39-1.12-.56-2.26-1.09-3.38-1.65C134.79,162.71,134.75,162.6,134.43,162.14ZM265.66,280.48c0-7-5.87-14.9-12.67-16.85-7-2-12.41,2.22-12.14,9.38.27,7,6.6,14.75,13.35,16.34C260.67,290.87,265.61,287.05,265.66,280.48Z"/><path d="M174,146.14c-1.08-4.71-2.17-9.41-3.28-14.23-12-3-41.1,19.47-41.74,33.64l12.94,5.89c-5.79,2.66-10.82,4.59-16.41,4.23a9.38,9.38,0,0,1-6.93-3.66Q82.43,127.22,46.23,82.49c-2.66-3.29-5.11-6.78-8-9.84-3.71-3.9-4.09-8.38-3.28-13.29C36.65,49.05,42.06,40.78,49.4,33.7c9.7-9.35,20.45-17.08,33.86-20.27a32.11,32.11,0,0,1,6.64-1c4.34-.06,8,1.13,11,4.91q39.8,49.64,79.9,99c.79,1,1.54,2,2.4,2.92,2.61,2.8,3,6.09,2.06,9.58-1.79,6.79-5.92,12.18-10.33,17.38ZM161.13,121c-.59-.8-1.16-1.6-1.78-2.36Q120.29,70.26,81.27,21.91c-1.51-1.88-2.74-2-4.73-1.09A79.12,79.12,0,0,0,47.76,43.1c-4.33,5.45-7.28,11.55-7.91,18.62a10,10,0,0,0,2.27,7.73q32.63,40.15,65.08,80.44c3.46,4.29,7,8.56,10.39,12.78C127.06,143.23,143,131,161.13,121ZM84.74,18c.58.87.71,1.1.87,1.31l45,55.66q17.06,21.1,34.14,42.19c.58.71,1.56,1.72,2.2,1.62,2.53-.42,5-1.23,7.65-1.94-.45-.62-.79-1.14-1.18-1.62Q134.79,67.41,96.14,19.65A4.4,4.4,0,0,0,93.52,18C90.79,17.82,88,18,84.74,18Z"/></svg>